<?xml version="1.0" encoding="UTF-8"?>
<svg width="55.129mm" height="112.09mm" version="1.1" viewBox="0 0 55.128986 112.08841" xmlns="http://www.w3.org/2000/svg" xmlns:cc="http://creativecommons.org/ns#" xmlns:dc="http://purl.org/dc/elements/1.1/" xmlns:rdf="http://www.w3.org/1999/02/22-rdf-syntax-ns#">
<metadata>
<rdf:RDF>
<cc:Work rdf:about="">
<dc:format>image/svg+xml</dc:format>
<dc:type rdf:resource="http://purl.org/dc/dcmitype/StillImage"/>
<dc:title/>
</cc:Work>
</rdf:RDF>
</metadata>
<g>
<path transform="matrix(.26458 0 0 .26458 -62.743 -97.594)" d="m256.38 398.39a18.571 182.5 0 0 0 -7.3164 18.266 4.9724 26.107 0 0 0 -4.3867 -12.016 4.9724 26.107 0 0 0 -4.7656 26.799 4.9724 26.107 0 0 0 3.6992 24.5 18.571 182.5 0 0 0 -5.0352 129.79 18.571 182.5 0 0 0 18.818 177.5 18.571 182.5 0 0 0 18.318 -182.48l-0.0273-9.9688a18.571 182.5 0 0 0 -19.305 -172.38z" fill="#f9f9f9"/>
<path transform="translate(-62.743 -97.594)" d="m96.077 99.17a1.1462 3.9688 0 0 1 0.24447 0.13178 1.2504 4.1577 0 0 0 -0.77614 3.6179l-0.0022 0.22738a1.2504 4.1577 0 0 0 0.76817 3.8318 1.1462 3.9688 0 0 1 -0.2969 0.12505 1.1462 3.9688 0 0 1 -1.13 -3.9682l0.0022-0.21704a1.1462 3.9688 0 0 1 1.191 -3.7486z" fill="#c0c0c0"/>
<path transform="translate(-62.743 -97.594)" d="m82.567 97.856a1.1462 3.9688 0 0 1 0.24447 0.13178 1.2504 4.1577 0 0 0 -0.77614 3.6179l-0.0022 0.22738a1.2504 4.1577 0 0 0 0.76817 3.8318 1.1462 3.9688 0 0 1 -0.2969 0.12505 1.1462 3.9688 0 0 1 -1.13 -3.9682l0.0022-0.21704a1.1462 3.9688 0 0 1 1.191 -3.7486z" fill="#c0c0c0"/>
<path transform="translate(-62.743 -97.594)" d="m68.046 97.598a1.1462 3.9688 0 0 1 0.24447 0.13178 1.2504 4.1577 0 0 0 -0.77614 3.6179l-0.0022 0.22738a1.2504 4.1577 0 0 0 0.76817 3.8318 1.1462 3.9688 0 0 1 -0.2969 0.12505 1.1462 3.9688 0 0 1 -1.13 -3.9682l0.0022-0.21704a1.1462 3.9688 0 0 1 1.191 -3.7486z" fill="#c0c0c0"/>
<path transform="translate(-62.743 -97.594)" d="m108.35 100.6a1.1462 3.9688 0 0 1 0.24446 0.13178 1.2504 4.1577 0 0 0 -0.77613 3.6179l-2e-3 0.22738a1.2504 4.1577 0 0 0 0.76816 3.8318 1.1462 3.9688 0 0 1 -0.2969 0.12505 1.1462 3.9688 0 0 1 -1.13 -3.9682l2e-3 -0.21704a1.1462 3.9688 0 0 1 1.191 -3.7486z" fill="#c0c0c0"/>
<path transform="translate(-62.743 -97.594)" d="m63.5 202.51s10.961-54.807-0.37798-97.14c0-4.5357 40.821-3.0238 48.003 1.1339s12.095 97.896-4.9137 102.05c-17.009 4.1577-42.711-6.0476-42.711-6.0476z" fill="#f9f9f9" stroke="#000" stroke-width=".26458px"/>
<path transform="translate(-62.743 -97.594)" d="m74.367 119.26l34.774 3.0238" fill="none" stroke="#000" stroke-width=".26458px"/>
<path transform="translate(-62.743 -97.594)" d="m73.989 131.35l34.774 3.0238" fill="none" stroke="#000" stroke-width=".26458px"/>
<path transform="translate(-62.743 -97.594)" d="m71.06 192.49l34.774 3.0238" fill="none" stroke="#000" stroke-width=".26458px"/>
<path transform="translate(-62.743 -97.594)" d="m72.666 180.49l34.774 3.0238" fill="none" stroke="#000" stroke-width=".26458px"/>
<path transform="translate(-62.743 -97.594)" d="m73.705 168.96l34.774 3.0238" fill="none" stroke="#000" stroke-width=".26458px"/>
<path transform="translate(-62.743 -97.594)" d="m73.611 157.15l34.774 3.0238" fill="none" stroke="#000" stroke-width=".26458px"/>
<path transform="translate(-62.743 -97.594)" d="m73.894 143.16l34.774 3.0238" fill="none" stroke="#000" stroke-width=".26458px"/>
<path transform="translate(-62.743 -97.594)" d="m63.122 105.37s6.4256 41.955 0.37798 97.14c-1.1339 1.5119-0.37798-97.14-0.37798-97.14z" fill="#fca" stroke="#000" stroke-width=".26458px"/>
<path d="m5.9559 7.6881a0.75293 0.74724 0 0 1 -0.74264 0.74717 0.75293 0.74724 0 0 1 -0.76293 -0.72675 0.75293 0.74724 0 0 1 0.7218 -0.76703 0.75293 0.74724 0 0 1 0.78265 0.7058"/>
<path d="m20.364 7.8867a0.75293 0.74724 0 0 1 -0.74264 0.74717 0.75293 0.74724 0 0 1 -0.76293 -0.72675 0.75293 0.74724 0 0 1 0.7218 -0.76703 0.75293 0.74724 0 0 1 0.78265 0.7058"/>
<path d="m33.928 9.1896a0.75293 0.74724 0 0 1 -0.74264 0.74717 0.75293 0.74724 0 0 1 -0.76293 -0.72675 0.75293 0.74724 0 0 1 0.7218 -0.76703 0.75293 0.74724 0 0 1 0.78265 0.7058"/>
<path d="m46.155 10.66a0.75293 0.74724 0 0 1 -0.74264 0.74717 0.75293 0.74724 0 0 1 -0.76293 -0.72675 0.75293 0.74724 0 0 1 0.7218 -0.76703 0.75293 0.74724 0 0 1 0.78265 0.7058"/>
<path transform="translate(-62.743 -97.594)" d="m68.047 97.598a1.0394 3.9687 0 0 0 -0.22169 0.13178 1.1339 4.1577 0 0 1 0.70383 3.6179l0.0021 0.22738a1.1339 4.1577 0 0 1 -0.6966 3.8318 1.0394 3.9687 0 0 0 0.26923 0.12505 1.0394 3.9687 0 0 0 1.0247 -3.9682l-0.0016-0.21704a1.0394 3.9687 0 0 0 -1.08 -3.7486z" fill="#c0c0c0"/>
<path transform="translate(-62.743 -97.594)" d="m82.567 97.856a1.0394 3.9688 0 0 0 -0.22169 0.13178 1.1339 4.1577 0 0 1 0.70383 3.6179l0.0021 0.22738a1.1339 4.1577 0 0 1 -0.6966 3.8318 1.0394 3.9688 0 0 0 0.26923 0.12505 1.0394 3.9688 0 0 0 1.0247 -3.9682l-0.0016-0.21704a1.0394 3.9688 0 0 0 -1.08 -3.7486z" fill="#c0c0c0"/>
<path transform="translate(-62.743 -97.594)" d="m96.078 99.17a1.0394 3.9688 0 0 0 -0.22169 0.13178 1.1339 4.1577 0 0 1 0.70383 3.6179l2e-3 0.22738a1.1339 4.1577 0 0 1 -0.6966 3.8318 1.0394 3.9688 0 0 0 0.26924 0.12505 1.0394 3.9688 0 0 0 1.0248 -3.9682l-2e-3 -0.21704a1.0394 3.9688 0 0 0 -1.08 -3.7486z" fill="#c0c0c0"/>
<path transform="translate(-62.743 -97.594)" d="m108.35 100.6a1.0394 3.9688 0 0 0 -0.22169 0.13177 1.1339 4.1577 0 0 1 0.70383 3.6179l2e-3 0.22738a1.1339 4.1577 0 0 1 -0.6966 3.8318 1.0394 3.9688 0 0 0 0.26923 0.12505 1.0394 3.9688 0 0 0 1.0248 -3.9682l-2e-3 -0.21704a1.0394 3.9688 0 0 0 -1.08 -3.7486z" fill="#c0c0c0"/>
</g>
</svg>
